<svg width="55" height="55" viewBox="0 0 55 55" fill="none" xmlns="http://www.w3.org/2000/svg">
<circle cx="26.5" cy="27.5" r="24.5" fill="#FFA200"/>
<path d="M21.8752 15.4766C21.4428 15.5662 21.0947 15.8668 20.9418 16.2834C20.8574 16.5049 20.5305 18.4877 20.5674 18.5299C20.5937 18.551 39.6519 22.5904 39.6678 22.5746C39.71 22.5377 40 20.5074 40 20.2437C40 19.6848 39.6414 19.1732 39.1352 19.015C38.9189 18.9465 22.5818 15.4924 22.3076 15.4607C22.1916 15.4449 21.9965 15.4555 21.8752 15.4766Z" fill="white"/>
<path d="M19.8344 21.3775C19.8291 21.3934 19.6445 22.2371 19.4336 23.2549C19.2227 24.2674 19.0223 25.1269 18.9906 25.1639C18.959 25.1955 17.8041 25.533 16.4277 25.918C15.0514 26.2977 13.8227 26.6562 13.7014 26.7143C13.4219 26.8461 13.1424 27.1678 13.0633 27.442C12.9262 27.8902 12.9578 28.0273 14.3975 33.2322C15.1674 36.0113 15.8371 38.4002 15.8846 38.5478C16.085 39.1701 16.5543 39.5393 17.1396 39.5445C17.398 39.5445 18.9959 39.1174 25.7406 37.24C30.2969 35.9744 34.0832 34.9144 34.157 34.8881C34.3891 34.7984 34.6844 34.4978 34.8109 34.2236C35.0008 33.8228 34.9744 33.5223 34.6844 32.4781L34.4312 31.5764L35.4068 31.782C36.0238 31.9139 36.4773 31.9824 36.625 31.9666C37.068 31.9297 37.5109 31.6291 37.6902 31.2389C37.801 31.0068 38.9769 25.4539 38.9242 25.4064C38.9031 25.3853 37.4107 25.0584 35.6072 24.6787L32.3271 23.9826L32.1637 23.4025C31.9369 22.5904 31.7682 22.3373 31.2988 22.1264C30.8822 21.9365 30.6291 21.9734 28.8678 22.4639L27.2646 22.9121L23.7578 22.1685C21.8277 21.7625 20.1613 21.4092 20.0506 21.3828C19.9451 21.3617 19.8449 21.3564 19.8344 21.3775ZM30.8664 23.1705C30.9244 23.2021 31.5309 25.2324 31.4939 25.2641C31.4834 25.2746 15.0197 29.8414 14.7877 29.8994C14.6559 29.931 14.6559 29.931 14.3764 28.9291C14.2182 28.3543 14.1127 27.8744 14.1338 27.8164C14.1496 27.7584 14.2182 27.7004 14.2814 27.6793C14.3447 27.6635 18.0519 26.6351 22.5185 25.3906C26.9852 24.1514 30.6766 23.1336 30.7187 23.1283C30.7609 23.1283 30.8295 23.1441 30.8664 23.1705ZM35.9078 26.1289C36.451 26.2449 36.9361 26.3609 36.9941 26.3926C37.1418 26.4717 37.2578 26.6615 37.2578 26.825C37.2578 26.9357 37.0258 28.1064 36.8623 28.8131C36.8148 29.0029 36.5512 29.2402 36.3771 29.2402C36.0713 29.2402 34.2889 28.8289 34.1518 28.7234C33.8986 28.5389 33.8986 28.4387 34.1412 27.3049C34.368 26.2344 34.4365 26.0498 34.6369 25.9707C34.8162 25.8969 34.8637 25.9021 35.9078 26.1289ZM33.0074 30.6641C33.4609 32.3041 33.8301 33.6699 33.8301 33.7068C33.8301 33.7437 33.7879 33.7965 33.7352 33.8228C33.5559 33.9178 17.2557 38.4213 17.1502 38.4055C17.0922 38.3949 17.0236 38.3527 17.0025 38.3105C16.9076 38.1523 15.3256 32.3252 15.3625 32.2935C15.431 32.2303 32.1162 27.616 32.1478 27.6529C32.1689 27.6687 32.5539 29.024 33.0074 30.6641Z" fill="white"/>
<path d="M18.4105 33.8281C17.0605 34.2078 17.1186 34.1867 17.0078 34.3713C16.9498 34.4662 16.9023 34.5928 16.9023 34.6613C16.9023 34.7246 17.0342 35.2467 17.1924 35.8215C17.4455 36.7285 17.4982 36.8762 17.6406 37.0027C17.7461 37.1029 17.8568 37.1504 17.9729 37.1504C18.0625 37.1504 18.6004 37.0238 19.1646 36.8656C20.3406 36.5387 20.4672 36.4596 20.4566 36.0799C20.4514 35.9586 20.3248 35.4102 20.1719 34.8617C19.8449 33.7121 19.7816 33.6172 19.3809 33.6225C19.249 33.6225 18.8166 33.7174 18.4105 33.8281Z" fill="white"/>
</svg>
