<svg width="55" height="55" viewBox="0 0 55 55" fill="none" xmlns="http://www.w3.org/2000/svg">
<circle cx="27.5" cy="27.5" r="24.5" fill="#FFA200"/>
<path d="M14 19.4C14 17.915 15.215 16.7 16.7 16.7H38.3C39.0161 16.7 39.7028 16.9845 40.2092 17.4908C40.7155 17.9972 41 18.6839 41 19.4V35.6C41 36.3161 40.7155 37.0028 40.2092 37.5092C39.7028 38.0155 39.0161 38.3 38.3 38.3H16.7C15.9839 38.3 15.2972 38.0155 14.7908 37.5092C14.2845 37.0028 14 36.3161 14 35.6V19.4ZM28.85 31.55L24.8 27.5L16.7 35.6H38.3L31.55 28.85L28.85 31.55ZM34.25 26.15C34.9661 26.15 35.6528 25.8655 36.1592 25.3592C36.6655 24.8528 36.95 24.1661 36.95 23.45C36.95 22.7339 36.6655 22.0472 36.1592 21.5408C35.6528 21.0345 34.9661 20.75 34.25 20.75C33.5339 20.75 32.8472 21.0345 32.3408 21.5408C31.8345 22.0472 31.55 22.7339 31.55 23.45C31.55 24.1661 31.8345 24.8528 32.3408 25.3592C32.8472 25.8655 33.5339 26.15 34.25 26.15Z" fill="white"/>
</svg>
