<svg width="55" height="55" viewBox="0 0 55 55" fill="none" xmlns="http://www.w3.org/2000/svg">
<g id="free-icon-more-information-9345766 1 (traced)">
<g id="Black">
<path id="Vector" d="M24.9756 3.50195C22.4727 3.8457 20.7002 4.27538 18.9062 4.97363C15.6084 6.25195 12.9873 7.94921 10.4736 10.4736C6.82129 14.1152 4.66211 18.3047 3.69531 23.5791C3.40527 25.126 3.40527 29.874 3.69531 31.4209C4.44727 35.5137 5.89746 38.876 8.30371 42.0986C9.29199 43.4199 11.5801 45.708 12.9014 46.6963C16.4463 49.3496 20.4746 50.9609 24.8037 51.4551C26.3076 51.6377 30.1211 51.541 31.4746 51.2939C35.4814 50.5742 38.9082 49.0918 42.0986 46.6963C43.4199 45.708 45.708 43.4199 46.6963 42.0986C49.1025 38.8867 50.5527 35.5244 51.3047 31.4209C51.5947 29.874 51.5947 25.126 51.3047 23.5791C50.5527 19.4863 49.1025 16.124 46.6963 12.9014C45.708 11.5801 43.4199 9.29198 42.0986 8.3037C38.8975 5.9082 35.5029 4.43652 31.4746 3.70605C30.7334 3.5664 29.7451 3.51269 27.876 3.4912C26.458 3.46972 25.1582 3.48046 24.9756 3.50195ZM29.2188 18.9062V20.625H27.5H25.7812V18.9062V17.1875H27.5H29.2188V18.9062ZM29.2188 30.9375V37.8125H27.5H25.7812V30.9375V24.0625H27.5H29.2188V30.9375Z" fill="#FFA200"/>
</g>
</g>
</svg>
