<svg width="55" height="55" viewBox="0 0 55 55" fill="none" xmlns="http://www.w3.org/2000/svg">
<circle cx="26.5" cy="27.5" r="24.5" fill="#FFA200"/>
<path d="M39.2316 18.6945L31.3813 16.4987L23.508 18.7165L16.1863 16.6395C16.0294 16.5949 15.8643 16.5874 15.7041 16.6175C15.5438 16.6475 15.3926 16.7144 15.2625 16.8127C15.1324 16.911 15.0269 17.0382 14.9542 17.1842C14.8816 17.3302 14.8437 17.491 14.8438 17.6541V35.6154C14.8445 35.8907 14.9347 36.1582 15.1006 36.3778C15.2666 36.5974 15.4994 36.7571 15.7639 36.833L23.5062 39.0294L31.3829 36.8107L38.8175 38.8903C38.9743 38.9341 39.1391 38.9411 39.2989 38.9106C39.4588 38.8802 39.6095 38.8131 39.7392 38.7147C39.8688 38.6163 39.9739 38.4893 40.0463 38.3435C40.1187 38.1977 40.1563 38.0371 40.1562 37.8743V19.9134C40.1556 19.6373 40.0649 19.369 39.8981 19.1491C39.7312 18.9291 39.4972 18.7696 39.2316 18.6945ZM22.5957 37.0168L16.5312 35.2964V18.4914L22.5957 20.2118V37.0168ZM30.5383 35.2951L24.2832 37.0571V20.2512L30.5383 18.4893V35.2951ZM38.4688 37.0402L32.2258 35.2941V18.4871L38.4688 20.2332V37.0402Z" fill="white"/>
</svg>
