<svg width="55" height="55" viewBox="0 0 55 55" fill="none" xmlns="http://www.w3.org/2000/svg">
<circle cx="27.5" cy="27.5" r="24.5" fill="#FFA200"/>
<path d="M27.5 17.375C27.5 17.375 20.5408 23.3825 16.6516 26.636C16.5279 26.7438 16.4282 26.8765 16.359 27.0253C16.2898 27.1742 16.2527 27.3359 16.25 27.5C16.25 27.7984 16.3685 28.0845 16.5795 28.2955C16.7905 28.5065 17.0766 28.625 17.375 28.625H19.625V36.5C19.625 36.7984 19.7435 37.0845 19.9545 37.2955C20.1655 37.5065 20.4516 37.625 20.75 37.625H24.125C24.4234 37.625 24.7095 37.5065 24.9205 37.2955C25.1315 37.0845 25.25 36.7984 25.25 36.5V32H29.75V36.5C29.75 36.7984 29.8685 37.0845 30.0795 37.2955C30.2905 37.5065 30.5766 37.625 30.875 37.625H34.25C34.5484 37.625 34.8345 37.5065 35.0455 37.2955C35.2565 37.0845 35.375 36.7984 35.375 36.5V28.625H37.625C37.9234 28.625 38.2095 28.5065 38.4205 28.2955C38.6315 28.0845 38.75 27.7984 38.75 27.5C38.7484 27.3327 38.7088 27.168 38.6342 27.0183C38.5595 26.8686 38.4518 26.7379 38.3191 26.636C34.457 23.3825 27.5 17.375 27.5 17.375Z" fill="white"/>
</svg>
