<svg width="55" height="55" viewBox="0 0 55 55" fill="none" xmlns="http://www.w3.org/2000/svg">
<circle cx="27.5" cy="27.5" r="24.5" fill="#FFA200"/>
<path d="M17.5596 14.0896C17.3117 14.2162 17.1061 14.4271 17.0006 14.6592C16.9057 14.8648 16.9004 15.3184 16.9004 27.4895C16.9004 38.7799 16.9109 40.1299 16.9848 40.3039C17.085 40.5518 17.2906 40.768 17.5437 40.8998C17.7336 40.9947 17.9973 41 27.5 41C37.0027 41 37.2664 40.9947 37.4563 40.8998C37.7094 40.768 37.915 40.5518 38.0152 40.3039C38.0891 40.1299 38.0996 39.1385 38.0996 31.2494V22.3848L34.2025 22.3742L30.3055 22.3584L30.0998 22.1949C29.6938 21.868 29.7148 22.1369 29.7148 17.8338V14H23.7189C18.3559 14.0053 17.702 14.0105 17.5596 14.0896ZM33.8809 27.2996C34.54 27.6846 34.4979 28.6127 33.807 28.9291C33.6014 29.024 33.3377 29.0293 27.5 29.0293C21.6623 29.0293 21.3986 29.024 21.193 28.9291C20.692 28.7023 20.4969 28.1012 20.7711 27.6318C20.9029 27.4051 21.0875 27.268 21.3828 27.1783C21.4566 27.1572 24.2463 27.1414 27.5791 27.1467L33.6436 27.1572L33.8809 27.2996ZM33.923 33.8967C34.4293 34.2289 34.4979 34.9725 34.0549 35.368C33.7648 35.6316 34.0021 35.6211 27.5 35.6211C20.9979 35.6211 21.2352 35.6316 20.9451 35.368C20.4178 34.8934 20.634 33.9811 21.3195 33.7754C21.3986 33.749 24.2146 33.7332 27.5844 33.7385L33.7016 33.749L33.923 33.8967Z" fill="white"/>
<path d="M31.5605 17.9023V20.4863H34.1551H36.7549L34.1709 17.9023C32.7523 16.4785 31.5816 15.3184 31.5764 15.3184C31.5658 15.3184 31.5605 16.4785 31.5605 17.9023Z" fill="white"/>
</svg>
