<svg width="55" height="55" viewBox="0 0 55 55" fill="none" xmlns="http://www.w3.org/2000/svg">
<circle cx="26.5" cy="27.5" r="24.5" fill="#FFA200"/>
<path d="M26.5 16.6875C24.0393 16.6903 21.6802 17.669 19.9402 19.409C18.2003 21.149 17.2215 23.5081 17.2188 25.9688C17.2188 33.9105 25.6562 39.9086 26.0159 40.1596C26.1578 40.259 26.3268 40.3123 26.5 40.3123C26.6732 40.3123 26.8422 40.259 26.9841 40.1596C27.3438 39.9086 35.7812 33.9105 35.7812 25.9688C35.7785 23.5081 34.7997 21.149 33.0598 19.409C31.3198 17.669 28.9607 16.6903 26.5 16.6875ZM26.5 22.5938C27.1675 22.5938 27.82 22.7917 28.375 23.1625C28.9301 23.5334 29.3626 24.0605 29.6181 24.6772C29.8735 25.2939 29.9404 25.9725 29.8102 26.6272C29.6799 27.2819 29.3585 27.8832 28.8865 28.3552C28.4145 28.8272 27.8131 29.1487 27.1584 29.2789C26.5037 29.4091 25.8251 29.3423 25.2084 29.0868C24.5917 28.8314 24.0646 28.3988 23.6938 27.8438C23.3229 27.2888 23.125 26.6363 23.125 25.9688C23.125 25.0736 23.4806 24.2152 24.1135 23.5823C24.7464 22.9493 25.6049 22.5938 26.5 22.5938Z" fill="white"/>
</svg>
