<svg width="27" height="27" viewBox="0 0 27 27" fill="none" xmlns="http://www.w3.org/2000/svg">
<circle cx="13.5" cy="13.5" r="13.5" fill="#FFA200"/>
<path d="M10.1375 12.7438C11.0375 14.5125 12.4875 15.9562 14.2562 16.8625L15.6312 15.4875C15.8 15.3188 16.05 15.2625 16.2688 15.3375C16.9688 15.5687 17.725 15.6938 18.5 15.6938C18.8438 15.6938 19.125 15.975 19.125 16.3188V18.5C19.125 18.8438 18.8438 19.125 18.5 19.125C12.6312 19.125 7.875 14.3688 7.875 8.5C7.875 8.15625 8.15625 7.875 8.5 7.875H10.6875C11.0312 7.875 11.3125 8.15625 11.3125 8.5C11.3125 9.28125 11.4375 10.0312 11.6687 10.7313C11.7375 10.95 11.6875 11.1938 11.5125 11.3688L10.1375 12.7438Z" fill="white"/>
</svg>
