<svg width="27" height="27" viewBox="0 0 27 27" fill="none" xmlns="http://www.w3.org/2000/svg">
<circle cx="13.5" cy="13.5" r="13.5" fill="#FFA200"/>
<path d="M13.5 6.9375C12.133 6.93905 10.8223 7.4828 9.85569 8.44944C8.88904 9.41609 8.3453 10.7267 8.34375 12.0938C8.34375 16.5059 13.0312 19.8381 13.2311 19.9775C13.3099 20.0328 13.4038 20.0624 13.5 20.0624C13.5962 20.0624 13.6901 20.0328 13.7689 19.9775C13.9688 19.8381 18.6562 16.5059 18.6562 12.0938C18.6547 10.7267 18.111 9.41609 17.1443 8.44944C16.1777 7.4828 14.867 6.93905 13.5 6.9375ZM13.5 10.2188C13.8708 10.2188 14.2334 10.3287 14.5417 10.5347C14.85 10.7408 15.0904 11.0336 15.2323 11.3762C15.3742 11.7188 15.4113 12.0958 15.339 12.4595C15.2666 12.8233 15.088 13.1574 14.8258 13.4196C14.5636 13.6818 14.2295 13.8604 13.8658 13.9327C13.5021 14.0051 13.1251 13.9679 12.7825 13.826C12.4399 13.6841 12.147 13.4438 11.941 13.1354C11.735 12.8271 11.625 12.4646 11.625 12.0938C11.625 11.5965 11.8225 11.1196 12.1742 10.7679C12.5258 10.4163 13.0027 10.2188 13.5 10.2188Z" fill="white"/>
</svg>
